<?xml version="1.0" encoding="UTF-8" standalone="no"?>
<!-- Generator: Adobe Illustrator 19.0.0, SVG Export Plug-In . SVG Version: 6.00 Build 0)  -->

<svg
   xmlns:dc="http://purl.org/dc/elements/1.1/"
   xmlns:cc="http://creativecommons.org/ns#"
   xmlns:rdf="http://www.w3.org/1999/02/22-rdf-syntax-ns#"
   xmlns:svg="http://www.w3.org/2000/svg"
   xmlns="http://www.w3.org/2000/svg"
   xmlns:sodipodi="http://sodipodi.sourceforge.net/DTD/sodipodi-0.dtd"
   xmlns:inkscape="http://www.inkscape.org/namespaces/inkscape"
   version="1.1"
   id="Layer_1"
   x="0px"
   y="0px"
   viewBox="0 0 469.333 469.333"
   style="enable-background:new 0 0 469.333 469.333;"
   xml:space="preserve"
   width="512px"
   height="512px"
   inkscape:version="0.91 r13725"
   sodipodi:docname="00.svg"><metadata
   id="metadata49"><rdf:RDF><cc:Work
       rdf:about=""><dc:format>image/svg+xml</dc:format><dc:type
         rdf:resource="http://purl.org/dc/dcmitype/StillImage" /></cc:Work></rdf:RDF></metadata><defs
   id="defs47" /><sodipodi:namedview
   pagecolor="#ffffff"
   bordercolor="#666666"
   borderopacity="1"
   objecttolerance="10"
   gridtolerance="10"
   guidetolerance="10"
   inkscape:pageopacity="0"
   inkscape:pageshadow="2"
   inkscape:window-width="1280"
   inkscape:window-height="962"
   id="namedview45"
   showgrid="false"
   inkscape:zoom="0.33364371"
   inkscape:cx="256"
   inkscape:cy="-176.19491"
   inkscape:window-x="-8"
   inkscape:window-y="-8"
   inkscape:window-maximized="1"
   inkscape:current-layer="Layer_1" />


<g
   id="g15">
</g>
<g
   id="g17">
</g>
<g
   id="g19">
</g>
<g
   id="g21">
</g>
<g
   id="g23">
</g>
<g
   id="g25">
</g>
<g
   id="g27">
</g>
<g
   id="g29">
</g>
<g
   id="g31">
</g>
<g
   id="g33">
</g>
<g
   id="g35">
</g>
<g
   id="g37">
</g>
<g
   id="g39">
</g>
<g
   id="g41">
</g>
<g
   id="g43">
</g>
<path
   style="fill:#ffffff;stroke:none;stroke-width:1.00008261;stroke-miterlimit:4;stroke-dasharray:none;stroke-opacity:1"
   inkscape:connector-curvature="0"
   d="M 234.667,4.390625e-5 C 130.984,4.390625e-5 46.933004,84.051044 46.933004,187.73304 c 0,110.933 187.732996,281.59992 187.732996,281.59992 0,0 187.734,-170.66592 187.734,-281.59992 C 422.4,84.051044 338.349,4.390625e-5 234.667,4.390625e-5 Z"
   id="path7-8"
   sodipodi:nodetypes="sscss" /><g
   transform="translate(3.90625e-6,3.90625e-6)"
   id="g3475"><g
     id="g3"><g
       id="g5"><path
         style="fill:#d80027"
         inkscape:connector-curvature="0"
         id="path7"
         d="M 234.667,0 C 130.984,0 46.933,84.051 46.933,187.733 c 0,110.933 187.733,281.6 187.733,281.6 0,0 187.734,-170.666 187.734,-281.6 C 422.4,84.051 338.349,0 234.667,0 Z m 0,413.44 C 166.827,343.253 88.534,244.053 88.534,187.733 88.999,107.184 154.119,41.969 234.667,41.386 c 80.548,0.582 145.669,65.798 146.133,146.347 0,57.6 -78.293,155.307 -146.133,225.707 z" /></g></g><g
     id="g9"><g
       id="g11"><polygon
         style="fill:#d80027"
         id="polygon13"
         points="213.333,277.333 256,277.333 256,213.333 320,213.333 320,170.667 256,170.667 256,106.667 213.333,106.667 213.333,170.667 149.333,170.667 149.333,213.333 213.333,213.333 " /></g></g></g></svg>